Coordinates
version=1
nRows=25
nColumns=38
inDegrees=no

Units are S.I. units (second, meters, Newtons, ...)
If the header above contains a line with 'inDegrees', this indicates whether rotational values are in degrees (yes) or radians (no).

endheader
time	pelvis_tilt	pelvis_list	pelvis_rotation	pelvis_tx	pelvis_ty	pelvis_tz	hip_flexion_r	hip_adduction_r	hip_rotation_r	knee_angle_r	ankle_angle_r	subtalar_angle_r	mtp_angle_r	hip_flexion_l	hip_adduction_l	hip_rotation_l	knee_angle_l	ankle_angle_l	subtalar_angle_l	mtp_angle_l	lumbar_extension	lumbar_bending	lumbar_rotation	arm_flex_r	arm_add_r	arm_rot_r	elbow_flex_r	pro_sup_r	wrist_flex_r	wrist_dev_r	arm_flex_l	arm_add_l	arm_rot_l	elbow_flex_l	pro_sup_l	wrist_flex_l	wrist_dev_l
3.98	-0.135072	-0.203315	0.0514642	0.71339	1.00367	-0.340126	0.960433	0.0482148	-0.30953	-1.65037	0.352435	0.1	-4.23075e-05	-0.256538	-0.323583	-0.631802	-0.433671	0.0311875	0.1	2.91853e-05	-0.0846765	0.228678	-0.340467	-0.570033	-0.477857	0.0856637	1.37662	1.35785	0.0999999	-0.0715173	-0.0534697	-0.66106	0.151041	2.28162	1.45651	0.0610603	-0.0496122
3.99	-0.145986	-0.206766	0.046111	0.715939	1.0073	-0.34037	0.967885	0.0493175	-0.323044	-1.51274	0.353823	0.1	-4.23075e-05	-0.2853	-0.327029	-0.642165	-0.434874	-0.0587772	0.1	2.91853e-05	-0.068917	0.240749	-0.352203	-0.600756	-0.484408	0.0544004	1.40522	1.3581	0.0999999	-0.0715173	-0.0564739	-0.652386	0.14742	2.3135	1.46465	0.0610603	-0.0496122
4	-0.157761	-0.20351	0.0408874	0.717967	1.01014	-0.340762	0.966394	0.0467571	-0.33623	-1.36554	0.355705	0.1	-4.23075e-05	-0.301573	-0.324216	-0.638711	-0.457976	-0.128408	0.1	2.91853e-05	-0.0540029	0.245328	-0.361204	-0.627064	-0.486703	0.022517	1.42992	1.35893	0.0999999	-0.0715173	-0.0603128	-0.6466	0.15059	2.33689	1.47415	0.0610603	-0.0496122
4.01	-0.168844	-0.194095	0.0354773	0.71957	1.01224	-0.341241	0.955423	0.0418659	-0.349978	-1.21103	0.358318	0.1	-4.23075e-05	-0.307838	-0.315763	-0.622473	-0.50198	-0.17624	0.1	2.91853e-05	-0.0414645	0.242954	-0.366897	-0.647673	-0.485137	-0.00782657	1.44996	1.3588	0.0999999	-0.0715173	-0.065247	-0.643364	0.15983	2.34982	1.48302	0.0610603	-0.0496122
4.02	-0.177884	-0.179618	0.0295856	0.720902	1.01361	-0.341743	0.935138	0.0358897	-0.36535	-1.05298	0.36137	0.1	-4.23075e-05	-0.306814	-0.302622	-0.595822	-0.564677	-0.203701	0.1	2.91853e-05	-0.032407	0.234842	-0.368842	-0.661694	-0.480612	-0.0347294	1.465	1.35672	0.0999999	-0.0715173	-0.0716936	-0.642021	0.174065	2.35081	1.48954	0.0610603	-0.0496122
4.03	-0.183947	-0.16159	0.0229551	0.722134	1.01423	-0.342209	0.906664	0.0298524	-0.383208	-0.896802	0.364044	0.1	-4.23075e-05	-0.301015	-0.286071	-0.562125	-0.643154	-0.2142	0.1	2.91853e-05	-0.0273799	0.222727	-0.366758	-0.668692	-0.474375	-0.0568002	1.47513	1.35247	0.0999999	-0.0715173	-0.0800674	-0.641695	0.191976	2.33903	1.4927	0.0610603	-0.0496122
4.04	-0.186619	-0.141733	0.0153528	0.723388	1.01405	-0.342602	0.872118	0.0244707	-0.403843	-0.749246	0.365217	0.1	-4.23075e-05	-0.292389	-0.267646	-0.525084	-0.734249	-0.212007	0.1	2.91853e-05	-0.0263576	0.208616	-0.36054	-0.668628	-0.467805	-0.0732412	1.48076	1.34662	0.0999999	-0.0715173	-0.0906629	-0.641439	0.212119	2.31431	1.49245	0.0610603	-0.0496122
4.05	-0.186029	-0.121799	0.00660529	0.724721	1.013	-0.342901	0.834379	0.0201815	-0.426658	-0.617735	0.363805	0.1	-4.23075e-05	-0.282117	-0.249038	-0.488138	-0.834967	-0.201286	0.1	2.91853e-05	-0.028846	0.194518	-0.350245	-0.661731	-0.4622	-0.0837881	1.48247	1.34028	0.0999999	-0.0715173	-0.103583	-0.640369	0.233065	2.27717	1.4897	0.0610603	-0.0496122
4.06	-0.182743	-0.103422	-0.0033688	0.726124	1.01107	-0.343077	0.796632	0.0172759	-0.450007	-0.509338	0.359173	0.1	-4.23075e-05	-0.270539	-0.232023	-0.453988	-0.942791	-0.185454	0.1	2.91853e-05	-0.0340746	0.182241	-0.33608	-0.648336	-0.458602	-0.0885706	1.4809	1.3348	0.0999999	-0.0715173	-0.118706	-0.637777	0.253539	2.22859	1.48597	0.0610603	-0.0496122
4.07	-0.177578	-0.088024	-0.0145339	0.727515	1.00821	-0.343083	0.761776	0.0160867	-0.471253	-0.429657	0.351502	0.1	-4.23075e-05	-0.257256	-0.218377	-0.424338	-1.05583	-0.166897	0.1	2.91853e-05	-0.0412415	0.173263	-0.318352	-0.628736	-0.457685	-0.0879637	1.4766	1.33131	0.0999999	-0.0715173	-0.135667	-0.633185	0.272555	2.1699	1.48304	0.0610603	-0.0496122
4.08	-0.171398	-0.0767446	-0.0267239	0.728758	1.00443	-0.342865	0.731905	0.0171196	-0.487177	-0.381967	0.342097	0.1	-4.23075e-05	-0.241321	-0.209756	-0.399814	-1.17279	-0.146963	0.1	2.91853e-05	-0.0497358	0.168685	-0.297428	-0.6031	-0.459721	-0.0824775	1.46999	1.33046	0.0999999	-0.0715173	-0.153884	-0.626349	0.289515	2.10256	1.48243	0.0610603	-0.0496122
4.09	-0.164919	-0.0703803	-0.0396447	0.729699	0.999746	-0.342376	0.708	0.0210097	-0.494727	-0.366806	0.33351	0.1	-4.23075e-05	-0.221457	-0.207473	-0.380008	-1.29276	-0.12618	0.1	2.91853e-05	-0.0592546	0.169198	-0.273703	-0.571467	-0.464596	-0.0727038	1.46135	1.33237	0.0999999	-0.0715173	-0.172613	-0.617249	0.304244	2.02802	1.48514	0.0610603	-0.0496122
4.1	-0.158634	-0.0693087	-0.0528929	0.730204	0.994215	-0.341616	0.689906	0.0282796	-0.49201	-0.382094	0.329369	0.1	-4.23075e-05	-0.196235	-0.212212	-0.363621	-1.41488	-0.104587	0.1	2.91853e-05	-0.0697783	0.175022	-0.247598	-0.533814	-0.471867	-0.0593118	1.4509	1.3367	0.0999999	-0.0715173	-0.191046	-0.606063	0.316979	1.9477	1.49142	0.0610603	-0.0496122
4.11	-0.152844	-0.073383	-0.0659857	0.730169	0.987951	-0.340654	0.676522	0.0390718	-0.478775	-0.423512	0.333809	0.1	-4.23075e-05	-0.164188	-0.223774	-0.348749	-1.53807	-0.0820446	0.1	2.91853e-05	-0.0814005	0.185834	-0.219591	-0.490185	-0.480826	-0.0430626	1.43886	1.34292	0.0999999	-0.0715173	-0.208457	-0.593169	0.328292	1.86302	1.50083	0.0610603	-0.0496122
4.12	-0.147756	-0.0818566	-0.0783997	0.729523	0.981228	-0.339622	0.66609	0.0529351	-0.456422	-0.484957	0.350494	0.1	-4.23075e-05	-0.123887	-0.240931	-0.333275	-1.66075	-0.0584475	0.1	2.91853e-05	-0.0940754	0.200694	-0.190246	-0.440851	-0.490567	-0.0248248	1.42555	1.35054	0.0999999	-0.0715173	-0.224361	-0.579155	0.338978	1.77556	1.51241	0.0610603	-0.0496122
4.13	-0.143593	-0.0933789	-0.0896173	0.728238	0.974524	-0.338678	0.656472	0.0687448	-0.427547	-0.559059	0.381498	0.1	-4.23075e-05	-0.0740646	-0.261455	-0.315318	-1.78071	-0.0338013	0.1	2.91853e-05	-0.107397	0.218027	-0.160234	-0.386458	-0.500063	-0.00558112	1.41147	1.35924	0.0999999	-0.0715173	-0.238667	-0.564832	0.349927	1.68723	1.52496	0.0610603	-0.0496122
4.14	-0.140643	-0.106091	-0.0991619	0.726381	0.968326	-0.337951	0.645395	0.0847421	-0.39538	-0.637877	0.426556	0.1	-4.23075e-05	-0.0138201	-0.28234	-0.29364	-1.89511	-0.00823907	0.1	2.91853e-05	-0.120513	0.235712	-0.130324	-0.32815	-0.508254	0.0135741	1.39736	1.36901	0.0999999	-0.0715173	-0.251762	-0.551226	0.361993	1.60045	1.53723	0.0610603	-0.0496122
4.15	-0.139223	-0.117816	-0.106619	0.724068	0.96291	-0.3375	0.630678	0.0987431	-0.363085	-0.71373	0.482967	0.1	-4.23075e-05	0.0571116	-0.300202	-0.267952	-2.00065	0.0180178	0.1	2.91853e-05	-0.132233	0.251301	-0.101327	-0.267593	-0.51415	0.0314482	1.38433	1.38001	0.0999999	-0.0715173	-0.264497	-0.539531	0.375868	1.51812	1.54809	0.0610603	-0.0496122
4.16	-0.139558	-0.126346	-0.111653	0.721413	0.958376	-0.337321	0.610409	0.108426	-0.333359	-0.78003	0.546138	0.1	-4.23075e-05	0.1381	-0.311772	-0.239017	-2.09381	0.044654	0.1	2.91853e-05	-0.141273	0.262341	-0.0740018	-0.206904	-0.516952	0.0467925	1.3738	1.39254	0.0999999	-0.0715173	-0.278071	-0.531003	0.391951	1.44353	1.55651	0.0610603	-0.0496122
4.17	-0.14166	-0.12979	-0.114042	0.718597	0.954825	-0.337376	0.583067	0.111686	-0.308267	-0.831871	0.610371	0.1	-4.23075e-05	0.22748	-0.314422	-0.208544	-2.17122	0.0712147	0.1	2.91853e-05	-0.146565	0.26672	-0.0489347	-0.148458	-0.516163	0.0584042	1.36741	1.40682	0.0999999	-0.0715173	-0.293853	-0.526779	0.410218	1.38004	1.56156	0.0610603	-0.0496122
4.18	-0.145265	-0.126871	-0.113735	0.7159	0.952439	-0.337614	0.547609	0.107022	-0.289196	-0.866213	0.669564	0.1	-4.23075e-05	0.322615	-0.306626	-0.178897	-2.22998	0.0971181	0.1	2.91853e-05	-0.147472	0.262999	-0.0264071	-0.0946203	-0.511664	0.065293	1.36684	1.4229	0.0999999	-0.0715173	-0.313194	-0.527674	0.43008	1.3306	1.56252	0.0610603	-0.0496122
4.19	-0.149927	-0.117105	-0.110918	0.713624	0.951409	-0.337968	0.503525	0.0938653	-0.276863	-0.881756	0.717777	0.1	-4.23075e-05	0.420185	-0.288283	-0.15267	-2.268	0.121764	0.1	2.91853e-05	-0.143875	0.250629	-0.0063155	-0.0474642	-0.503731	0.0668766	1.37354	1.44052	0.0999999	-0.0715173	-0.337287	-0.533986	0.450304	1.29733	1.55899	0.0610603	-0.0496122
4.2	-0.15515	-0.100871	-0.106049	0.712039	0.951845	-0.338375	0.450913	0.0727638	-0.271301	-0.878621	0.749632	0.1	-4.23075e-05	0.516619	-0.260767	-0.13219	-2.28421	0.144652	0.1	2.91853e-05	-0.136099	0.229993	0.0118244	-0.00853435	-0.492972	0.0631362	1.3884	1.45904	0.0999999	-0.0715173	-0.367066	-0.545398	0.469019	1.28117	1.55105	0.0610603	-0.0496122
4.21	-0.160542	-0.0793372	-0.0998243	0.711364	0.953765	-0.338786	0.390544	0.0453478	-0.271899	-0.858037	0.760737	0.1	-4.23075e-05	0.608589	-0.226732	-0.119089	-2.27861	0.165497	0.1	2.91853e-05	-0.124732	0.202328	0.0287822	0.0212921	-0.480209	0.054666	1.41163	1.47745	0.0999999	-0.0715173	-0.403136	-0.560986	0.483877	1.28175	1.53933	0.0610603	-0.0496122
4.22	-0.165911	-0.0542534	-0.0930672	0.71173	0.957097	-0.339154	0.323906	0.0140617	-0.277586	-0.822155	0.748129	0.1	-4.23075e-05	0.693414	-0.189672	-0.114034	-2.25221	0.18426	0.1	2.91853e-05	-0.110437	0.169534	0.0454432	0.0418352	-0.466351	0.0425922	1.44271	1.49448	0.0999999	-0.0715173	-0.445704	-0.579335	0.492359	1.29744	1.52495	0.0610603	-0.0496122
